<svg viewBox="0 0 44.998 53.367" xmlns="http://www.w3.org/2000/svg">
   <path style="fill:#fef8fa;fill-opacity:1;stroke:#f02e65;stroke-width:2.64583;stroke-linecap:square;stroke-linejoin:miter;stroke-miterlimit:3.9;stroke-dasharray:none;stroke-opacity:1" d="m48.064 84.227 19.844 10.584v26.458l-19.844-10.583Z" transform="translate(-46.725 -70.107)"/>
   <path style="fill:#d00f46;fill-opacity:1;stroke:#d00f46;stroke-width:2.64583;stroke-linecap:square;stroke-linejoin:miter;stroke-miterlimit:3.9;stroke-dasharray:none;stroke-opacity:1" d="M90.391 84.227 70.548 94.811v26.458l19.843-10.583z" transform="translate(-46.725 -70.107)"/>
   <path style="fill:#f4658e;fill-opacity:1;stroke:#f4658e;stroke-width:2.62574;stroke-linecap:square;stroke-linejoin:miter;stroke-miterlimit:3.9;stroke-dasharray:none;stroke-opacity:1" d="M69.224 71.594 49.518 82.09l19.706 10.496L88.93 82.09Z" transform="translate(-46.725 -70.107)"/>
   <path style="fill:#f02e65;fill-opacity:1;stroke:none;stroke-width:.150584;stroke-linecap:square;stroke-linejoin:miter;stroke-miterlimit:3.9;stroke-dasharray:none;stroke-opacity:1" d="m52.791 99.496 1.13.603v1.505l-1.13-.602z" transform="translate(-45.595 -69.505)"/>
   <path style="fill:#f02e65;fill-opacity:1;stroke:none;stroke-width:.150584;stroke-linecap:square;stroke-linejoin:miter;stroke-miterlimit:3.9;stroke-dasharray:none;stroke-opacity:1" d="m53.92 98.593 1.13.602v1.506l-1.13-.602zM53.92 101.604l1.13.603v1.506l-1.13-.603zM59.72 102.953l1.13.603v1.505l-1.13-.602ZM58.59 100.845l1.13.602v1.506l-1.13-.602zM58.59 103.857l1.13.602v1.506l-1.13-.603zM57.896 97.938l1.13.602-3.04 7.867-1.13-.602z" transform="translate(-45.595 -69.505)"/>
   <path style="fill:#f02e65;fill-opacity:.135278;stroke:none;stroke-width:.150584;stroke-linecap:square;stroke-linejoin:miter;stroke-miterlimit:3.9;stroke-dasharray:none;stroke-opacity:1" d="m51.662 95.882 1.13.603v1.505l-1.13-.602z" transform="translate(-46.725 -70.107)"/>
   <path style="fill:#f02e65;fill-opacity:.135278;stroke:none;stroke-width:.150584;stroke-linecap:square;stroke-linejoin:miter;stroke-miterlimit:3.9;stroke-dasharray:none;stroke-opacity:1" d="m52.791 94.979 1.13.602v1.506l-1.13-.602zM52.791 97.99l1.13.603v1.506l-1.13-.603zM57.461 103.254l1.13.603v1.505l-1.13-.602z" transform="translate(-46.725 -70.107)"/>
   <path style="fill:#f02e65;fill-opacity:.135278;stroke:none;stroke-width:.150584;stroke-linecap:square;stroke-linejoin:miter;stroke-miterlimit:3.9;stroke-dasharray:none;stroke-opacity:1" d="m58.59 102.35 1.13.603v1.506l-1.13-.602zM58.59 105.362l1.13.603v1.506l-1.13-.603z" transform="translate(-46.725 -70.107)"/>
   <path style="fill:#f02e65;fill-opacity:.135278;stroke:none;stroke-width:.150584;stroke-linecap:square;stroke-linejoin:miter;stroke-miterlimit:3.9;stroke-dasharray:none;stroke-opacity:1" d="m59.72 101.447 1.13.603v1.506l-1.13-.603z" transform="translate(-46.725 -70.107)"/>
   <path style="fill:#f02e65;fill-opacity:.135278;stroke:none;stroke-width:.150584;stroke-linecap:square;stroke-linejoin:miter;stroke-miterlimit:3.9;stroke-dasharray:none;stroke-opacity:1" d="m60.85 100.544 1.129.602v1.506l-1.13-.602zM60.85 103.556l1.129.602v1.506l-1.13-.603zM58.59 99.34l1.13.602v1.505l-1.13-.602Z" transform="translate(-46.725 -70.107)"/>
   <path style="fill:#f02e65;fill-opacity:.135278;stroke:none;stroke-width:.150584;stroke-linecap:square;stroke-linejoin:miter;stroke-miterlimit:3.9;stroke-dasharray:none;stroke-opacity:1" d="m59.72 98.436 1.13.602v1.506l-1.13-.602zM59.72 101.447l1.13.603v1.506l-1.13-.603zM56.332 104.158l1.13.602v1.506l-1.13-.602z" transform="translate(-46.725 -70.107)"/>
   <path style="fill:#f02e65;fill-opacity:.135278;stroke:none;stroke-width:.150584;stroke-linecap:square;stroke-linejoin:miter;stroke-miterlimit:3.9;stroke-dasharray:none;stroke-opacity:1" d="m57.461 103.254 1.13.603v1.505l-1.13-.602zM57.461 106.266l1.13.602v1.506l-1.13-.602z" transform="translate(-46.725 -70.107)"/>
   <path style="fill:#f02e65;fill-opacity:.135278;stroke:none;stroke-width:.150584;stroke-linecap:square;stroke-linejoin:miter;stroke-miterlimit:3.9;stroke-dasharray:none;stroke-opacity:1" d="m58.59 105.362 1.13.603v1.506l-1.13-.603z" transform="translate(-46.725 -70.107)"/>
   <path style="fill:#f02e65;fill-opacity:.135278;stroke:none;stroke-width:.150584;stroke-linecap:square;stroke-linejoin:miter;stroke-miterlimit:3.9;stroke-dasharray:none;stroke-opacity:1" d="m59.72 104.459 1.13.602v1.506l-1.13-.602zM59.72 107.47l1.13.603v1.506l-1.13-.603zM50.532 96.786l1.13.602v1.506l-1.13-.602zM51.662 92.87l1.13.603v1.506l-1.13-.603zM52.791 101.002l1.13.602v1.506l-1.13-.602zM50.532 99.797l1.13.603v1.506l-1.13-.603z" transform="translate(-46.725 -70.107)"/>
   <path style="fill:#f02e65;fill-opacity:.135278;stroke:none;stroke-width:.150584;stroke-linecap:square;stroke-linejoin:miter;stroke-miterlimit:3.9;stroke-dasharray:none;stroke-opacity:1" d="m49.403 96.183 1.13.603v1.506l-1.13-.603zM51.662 101.906l1.13.602v1.506l-1.13-.603zM57.274 93.665l1.13.602v1.506l-1.13-.603zM50.532 98.292l1.13.602v1.506l-1.13-.603z" transform="translate(-46.725 -70.107)"/>
   <path style="fill:#f02e65;fill-opacity:.135278;stroke:none;stroke-width:.150584;stroke-linecap:square;stroke-linejoin:miter;stroke-miterlimit:3.9;stroke-dasharray:none;stroke-opacity:1" d="m50.532 98.292 1.13.602v1.506l-1.13-.603zM63.108 106.266l1.13.602v1.506l-1.13-.602zM63.108 110.783l1.13.603v1.506l-1.13-.603zM64.238 105.363l1.13.602v1.506l-1.13-.603zM50.532 102.81l1.13.601v1.506l-1.13-.602zM50.532 101.303l1.13.603v1.505l-1.13-.602zM63.108 112.29l1.13.602v1.505l-1.13-.602zM49.403 105.218l1.13.603v1.506l-1.13-.603zM53.92 104.616l1.13.602v1.506l-1.13-.602zM53.92 110.64l1.13.602v1.506l-1.13-.603zM51.662 104.917l1.13.603v1.505l-1.13-.602z" transform="translate(-46.725 -70.107)"/>
   <path style="fill:#f02e65;fill-opacity:.135278;stroke:none;stroke-width:.150584;stroke-linecap:square;stroke-linejoin:miter;stroke-miterlimit:3.9;stroke-dasharray:none;stroke-opacity:1" d="m50.532 105.82 1.13.603v1.506l-1.13-.602zM51.662 104.917l1.13.603v1.505l-1.13-.602zM58.438 113.049l1.13.602v1.506l-1.13-.602z" transform="translate(-46.725 -70.107)"/>
   <path style="fill:#f02e65;fill-opacity:.135278;stroke:none;stroke-width:.150584;stroke-linecap:square;stroke-linejoin:miter;stroke-miterlimit:3.9;stroke-dasharray:none;stroke-opacity:1" d="m59.567 112.145 1.13.603v1.505l-1.13-.602zM57.309 110.94l1.129.603v1.506l-1.13-.603zM55.05 106.724l1.13.603v1.505l-1.13-.602zM55.05 109.736l1.13.602v1.506l-1.13-.602zM53.92 107.628l1.13.602v1.506l-1.13-.602zM59.72 108.976l1.13.603v1.506l-1.13-.603z" transform="translate(-46.725 -70.107)"/>
   <path style="fill:#f02e65;fill-opacity:.135278;stroke:none;stroke-width:.150584;stroke-linecap:square;stroke-linejoin:miter;stroke-miterlimit:3.9;stroke-dasharray:none;stroke-opacity:1" d="m56.18 108.832 1.129.603v1.506l-1.13-.603zM60.697 114.254l1.13.602v1.506l-1.13-.603zM64.238 99.34l1.13.602v1.505l-1.13-.602z" transform="translate(-46.725 -70.107)"/>
   <path style="fill:#f02e65;fill-opacity:.135278;stroke:none;stroke-width:.150584;stroke-linecap:square;stroke-linejoin:miter;stroke-miterlimit:3.9;stroke-dasharray:none;stroke-opacity:1" d="m65.367 98.436 1.13.602v1.506l-1.13-.602zM63.108 100.243l1.13.602v1.506l-1.13-.602zM64.238 96.328l1.13.602v1.506l-1.13-.603Z" transform="translate(-46.725 -70.107)"/>
   <path style="fill:#f02e65;fill-opacity:.135278;stroke:none;stroke-width:.150584;stroke-linecap:square;stroke-linejoin:miter;stroke-miterlimit:3.9;stroke-dasharray:none;stroke-opacity:1" d="m61.979 99.64 1.13.603v1.506l-1.13-.603zM63.108 101.749l1.13.602v1.506l-1.13-.603z" transform="translate(-46.725 -70.107)"/>
   <path style="fill:#f02e65;fill-opacity:.135278;stroke:none;stroke-width:.150584;stroke-linecap:square;stroke-linejoin:miter;stroke-miterlimit:3.9;stroke-dasharray:none;stroke-opacity:1" d="m63.108 103.254 1.13.603v1.506l-1.13-.603zM63.108 100.243l1.13.602v1.506l-1.13-.602zM61.979 105.664l1.13.602v1.506l-1.13-.603z" transform="translate(-46.725 -70.107)"/>
   <path style="fill:#f02e65;fill-opacity:.135278;stroke:none;stroke-width:.150584;stroke-linecap:square;stroke-linejoin:miter;stroke-miterlimit:3.9;stroke-dasharray:none;stroke-opacity:1" d="m63.108 106.266 1.13.602v1.506l-1.13-.602zM63.108 103.254l1.13.603v1.506l-1.13-.603zM61.979 108.675l1.13.603v1.505l-1.13-.602zM63.108 112.29l1.13.602v1.505l-1.13-.602z" transform="translate(-46.725 -70.107)"/>
   <path style="fill:#f02e65;fill-opacity:.135278;stroke:none;stroke-width:.150584;stroke-linecap:square;stroke-linejoin:miter;stroke-miterlimit:3.9;stroke-dasharray:none;stroke-opacity:1" d="m63.108 113.795 1.13.602v1.506l-1.13-.602zM50.532 90.762l1.13.603v1.506l-1.13-.603zM51.662 89.859l1.13.602v1.506l-1.13-.602zM56.332 98.134l1.13.603v1.506l-1.13-.603zM56.332 101.146l1.13.602v1.506l-1.13-.602zM50.532 87.75l1.13.603v1.506l-1.13-.602zM51.662 95.882l1.13.603v1.505l-1.13-.602zM49.403 93.172l1.13.602v1.506l-1.13-.602zM59.72 95.424l1.13.602v1.506l-1.13-.602z" transform="translate(-46.725 -70.107)"/>
   <path style="fill:#f02e65;fill-opacity:.135278;stroke:none;stroke-width:.150584;stroke-linecap:square;stroke-linejoin:miter;stroke-miterlimit:3.9;stroke-dasharray:none;stroke-opacity:1" d="m60.85 94.52 1.129.603v1.506l-1.13-.603zM65.52 102.796l1.13.602v1.506l-1.13-.602zM65.367 105.965l1.13.602v1.506l-1.13-.602z" transform="translate(-46.725 -70.107)"/>
   <path style="fill:#f02e65;fill-opacity:.135278;stroke:none;stroke-width:.150584;stroke-linecap:square;stroke-linejoin:miter;stroke-miterlimit:3.9;stroke-dasharray:none;stroke-opacity:1" d="m59.72 92.412 1.13.603v1.506l-1.13-.603zM60.85 100.544l1.129.602v1.506l-1.13-.602zM58.59 97.833l1.13.603v1.506l-1.13-.603ZM59.72 95.424l1.13.602v1.506l-1.13-.602z" transform="translate(-46.725 -70.107)"/>
   <path style="fill:#f02e65;fill-opacity:.135278;stroke:none;stroke-width:.150584;stroke-linecap:square;stroke-linejoin:miter;stroke-miterlimit:3.9;stroke-dasharray:none;stroke-opacity:1" d="m60.85 94.52 1.129.603v1.506l-1.13-.603zM65.52 102.796l1.13.602v1.506l-1.13-.602zM65.367 105.965l1.13.602v1.506l-1.13-.602z" transform="translate(-46.725 -70.107)"/>
   <path style="fill:#f02e65;fill-opacity:.135278;stroke:none;stroke-width:.150584;stroke-linecap:square;stroke-linejoin:miter;stroke-miterlimit:3.9;stroke-dasharray:none;stroke-opacity:1" d="m59.72 92.412 1.13.603v1.506l-1.13-.603zM60.85 100.544l1.129.602v1.506l-1.13-.602zM58.59 97.833l1.13.603v1.506l-1.13-.603Z" transform="translate(-46.725 -70.107)"/>
</svg>